<svg width="24" height="31" viewBox="0 0 24 31" fill="none" xmlns="http://www.w3.org/2000/svg">
<path d="M7.5 10.3333H16.5V7.38095C16.5 6.15079 16.0625 5.10516 15.1875 4.24405C14.3125 3.38294 13.25 2.95238 12 2.95238C10.75 2.95238 9.6875 3.38294 8.8125 4.24405C7.9375 5.10516 7.5 6.15079 7.5 7.38095V10.3333ZM3 31C2.175 31 1.469 30.7112 0.882 30.1335C0.295 29.5558 0.001 28.8605 0 28.0476V13.2857C0 12.4738 0.294 11.779 0.882 11.2013C1.47 10.6237 2.176 10.3343 3 10.3333H4.5V7.38095C4.5 5.33889 5.2315 3.59846 6.6945 2.15967C8.1575 0.720874 9.926 0.000985135 12 1.00764e-06C14.074 -0.000983119 15.843 0.718906 17.307 2.15967C18.771 3.60043 19.502 5.34086 19.5 7.38095V10.3333H21C21.825 10.3333 22.5315 10.6227 23.1195 11.2013C23.7075 11.78 24.001 12.4748 24 13.2857V13.5071C24 13.9254 23.8315 14.2698 23.4945 14.5405C23.1575 14.8111 22.7635 14.9095 22.3125 14.8357C22.1125 14.8111 21.9 14.7924 21.675 14.7796C21.45 14.7668 21.225 14.7609 21 14.7619C18.075 14.7619 15.594 15.7647 13.557 17.7704C11.52 19.776 10.501 22.2177 10.5 25.0952C10.5 25.8087 10.5815 26.5163 10.7445 27.218C10.9075 27.9197 11.126 28.5899 11.4 29.2286C11.6 29.6468 11.5815 30.0469 11.3445 30.4287C11.1075 30.8106 10.776 31.001 10.35 31H3Z" fill="#0F1F3D"/>
</svg>
